<mxfile host="app.diagrams.net" modified="2024-02-29T23:41:18.471Z" agent="Mozilla/5.0 (Windows NT 10.0; Win64; x64; rv:123.0) Gecko/20100101 Firefox/123.0" etag="q4Dj3sUMFL1yW8xPQLiT" version="21.3.7">
  <diagram name="Page-1" id="-9CVJ2_j37sNf6J25Adx">
    <mxGraphModel dx="1105" dy="558" grid="1" gridSize="10" guides="1" tooltips="1" connect="1" arrows="1" fold="1" page="1" pageScale="1" pageWidth="827" pageHeight="1169" math="0" shadow="0">
      <root>
        <mxCell id="0" />
        <mxCell id="1" parent="0" />
        <mxCell id="0g5WN1IyFn4A6xdM52gC-6" style="edgeStyle=orthogonalEdgeStyle;orthogonalLoop=1;jettySize=auto;html=1;exitX=1;exitY=0.5;exitDx=0;exitDy=0;entryX=0;entryY=0.5;entryDx=0;entryDy=0;strokeColor=default;rounded=0;endArrow=none;endFill=0;" edge="1" parent="1" source="0g5WN1IyFn4A6xdM52gC-1" target="0g5WN1IyFn4A6xdM52gC-5">
          <mxGeometry relative="1" as="geometry" />
        </mxCell>
        <mxCell id="0g5WN1IyFn4A6xdM52gC-1" value="Game" style="swimlane;fontStyle=0;childLayout=stackLayout;horizontal=1;startSize=26;fillColor=none;horizontalStack=0;resizeParent=1;resizeParentMax=0;resizeLast=0;collapsible=1;marginBottom=0;whiteSpace=wrap;html=1;" vertex="1" parent="1">
          <mxGeometry x="150" y="100" width="140" height="52" as="geometry">
            <mxRectangle x="150" y="100" width="70" height="30" as="alternateBounds" />
          </mxGeometry>
        </mxCell>
        <mxCell id="0g5WN1IyFn4A6xdM52gC-26" style="edgeStyle=orthogonalEdgeStyle;rounded=0;orthogonalLoop=1;jettySize=auto;html=1;dashed=1;" edge="1" parent="1" source="0g5WN1IyFn4A6xdM52gC-5" target="0g5WN1IyFn4A6xdM52gC-17">
          <mxGeometry relative="1" as="geometry" />
        </mxCell>
        <mxCell id="0g5WN1IyFn4A6xdM52gC-5" value="Match" style="swimlane;fontStyle=0;childLayout=stackLayout;horizontal=1;startSize=26;fillColor=none;horizontalStack=0;resizeParent=1;resizeParentMax=0;resizeLast=0;collapsible=1;marginBottom=0;whiteSpace=wrap;html=1;" vertex="1" parent="1">
          <mxGeometry x="360" y="100" width="140" height="52" as="geometry">
            <mxRectangle x="360" y="100" width="70" height="30" as="alternateBounds" />
          </mxGeometry>
        </mxCell>
        <mxCell id="0g5WN1IyFn4A6xdM52gC-12" value="" style="edgeStyle=orthogonalEdgeStyle;rounded=0;orthogonalLoop=1;jettySize=auto;html=1;exitX=0;exitY=0.5;exitDx=0;exitDy=0;entryX=0.5;entryY=1;entryDx=0;entryDy=0;endArrow=diamondThin;endFill=1;movable=1;resizable=1;rotatable=1;deletable=1;editable=1;locked=0;connectable=1;targetPerimeterSpacing=0;" edge="1" parent="1" source="0g5WN1IyFn4A6xdM52gC-46" target="0g5WN1IyFn4A6xdM52gC-5">
          <mxGeometry relative="1" as="geometry">
            <mxPoint x="700" y="337" as="sourcePoint" />
          </mxGeometry>
        </mxCell>
        <mxCell id="0g5WN1IyFn4A6xdM52gC-13" value="1..*" style="text;html=1;align=center;verticalAlign=middle;resizable=1;points=[];autosize=1;strokeColor=none;fillColor=none;movable=1;rotatable=1;deletable=1;editable=1;locked=0;connectable=1;" vertex="1" parent="1">
          <mxGeometry x="430" y="152" width="40" height="30" as="geometry" />
        </mxCell>
        <mxCell id="0g5WN1IyFn4A6xdM52gC-25" value="" style="group" vertex="1" connectable="0" parent="1">
          <mxGeometry x="600" y="11" width="260" height="230" as="geometry" />
        </mxCell>
        <mxCell id="0g5WN1IyFn4A6xdM52gC-17" value="Display" style="shape=umlFrame;whiteSpace=wrap;html=1;pointerEvents=0;" vertex="1" parent="0g5WN1IyFn4A6xdM52gC-25">
          <mxGeometry width="260" height="230" as="geometry" />
        </mxCell>
        <mxCell id="0g5WN1IyFn4A6xdM52gC-22" value="SDL_display.h" style="html=1;whiteSpace=wrap;" vertex="1" parent="0g5WN1IyFn4A6xdM52gC-25">
          <mxGeometry x="65" y="40" width="130" height="50" as="geometry" />
        </mxCell>
        <mxCell id="0g5WN1IyFn4A6xdM52gC-23" value="DisplayParameters.h" style="html=1;whiteSpace=wrap;" vertex="1" parent="0g5WN1IyFn4A6xdM52gC-25">
          <mxGeometry x="65" y="130" width="130" height="50" as="geometry" />
        </mxCell>
        <mxCell id="0g5WN1IyFn4A6xdM52gC-32" value="Game mechanics" style="shape=umlFrame;whiteSpace=wrap;html=1;pointerEvents=0;width=110;height=30;" vertex="1" parent="1">
          <mxGeometry x="600" y="270" width="580" height="490" as="geometry" />
        </mxCell>
        <mxCell id="0g5WN1IyFn4A6xdM52gC-41" style="edgeStyle=orthogonalEdgeStyle;rounded=0;orthogonalLoop=1;jettySize=auto;html=1;exitX=0.5;exitY=0;exitDx=0;exitDy=0;endArrow=diamondThin;endFill=1;entryX=0.5;entryY=1;entryDx=0;entryDy=0;" edge="1" parent="1" source="0g5WN1IyFn4A6xdM52gC-37" target="0g5WN1IyFn4A6xdM52gC-46">
          <mxGeometry relative="1" as="geometry">
            <mxPoint x="780" y="400" as="targetPoint" />
          </mxGeometry>
        </mxCell>
        <mxCell id="0g5WN1IyFn4A6xdM52gC-51" value="" style="group" vertex="1" connectable="0" parent="1">
          <mxGeometry x="690" y="320" width="170" height="130" as="geometry" />
        </mxCell>
        <mxCell id="0g5WN1IyFn4A6xdM52gC-46" value="GameObject" style="swimlane;fontStyle=1;align=center;verticalAlign=top;childLayout=stackLayout;horizontal=1;startSize=26;horizontalStack=0;resizeParent=1;resizeParentMax=0;resizeLast=0;collapsible=1;marginBottom=0;whiteSpace=wrap;html=1;" vertex="1" parent="0g5WN1IyFn4A6xdM52gC-51">
          <mxGeometry width="170" height="120" as="geometry" />
        </mxCell>
        <mxCell id="0g5WN1IyFn4A6xdM52gC-47" value="- w:double&lt;br&gt;- h: double" style="text;strokeColor=none;fillColor=none;align=left;verticalAlign=top;spacingLeft=4;spacingRight=4;overflow=hidden;rotatable=0;points=[[0,0.5],[1,0.5]];portConstraint=eastwest;whiteSpace=wrap;html=1;" vertex="1" parent="0g5WN1IyFn4A6xdM52gC-46">
          <mxGeometry y="26" width="170" height="44" as="geometry" />
        </mxCell>
        <mxCell id="0g5WN1IyFn4A6xdM52gC-48" value="" style="line;strokeWidth=1;fillColor=none;align=left;verticalAlign=middle;spacingTop=-1;spacingLeft=3;spacingRight=3;rotatable=0;labelPosition=right;points=[];portConstraint=eastwest;strokeColor=inherit;" vertex="1" parent="0g5WN1IyFn4A6xdM52gC-46">
          <mxGeometry y="70" width="170" height="8" as="geometry" />
        </mxCell>
        <mxCell id="0g5WN1IyFn4A6xdM52gC-49" value="+ Move(double): Point" style="text;strokeColor=none;fillColor=none;align=left;verticalAlign=top;spacingLeft=4;spacingRight=4;overflow=hidden;rotatable=0;points=[[0,0.5],[1,0.5]];portConstraint=eastwest;whiteSpace=wrap;html=1;" vertex="1" parent="0g5WN1IyFn4A6xdM52gC-46">
          <mxGeometry y="78" width="170" height="42" as="geometry" />
        </mxCell>
        <mxCell id="0g5WN1IyFn4A6xdM52gC-52" value="" style="group" vertex="1" connectable="0" parent="1">
          <mxGeometry x="610" y="520" width="550" height="175" as="geometry" />
        </mxCell>
        <mxCell id="0g5WN1IyFn4A6xdM52gC-33" value="Geometry" style="shape=umlFrame;whiteSpace=wrap;html=1;pointerEvents=0;" vertex="1" parent="0g5WN1IyFn4A6xdM52gC-52">
          <mxGeometry width="550" height="175" as="geometry" />
        </mxCell>
        <mxCell id="0g5WN1IyFn4A6xdM52gC-37" value="Point" style="swimlane;fontStyle=1;align=center;verticalAlign=top;childLayout=stackLayout;horizontal=1;startSize=26;horizontalStack=0;resizeParent=1;resizeParentMax=0;resizeLast=0;collapsible=1;marginBottom=0;whiteSpace=wrap;html=1;" vertex="1" parent="0g5WN1IyFn4A6xdM52gC-52">
          <mxGeometry x="75.83" y="29.166666666666664" width="174.17" height="89.99666666666667" as="geometry">
            <mxRectangle x="700" y="460" width="70" height="30" as="alternateBounds" />
          </mxGeometry>
        </mxCell>
        <mxCell id="0g5WN1IyFn4A6xdM52gC-38" value="- x: double&lt;br&gt;- y: double" style="text;strokeColor=none;fillColor=none;align=left;verticalAlign=top;spacingLeft=4;spacingRight=4;overflow=hidden;rotatable=0;points=[[0,0.5],[1,0.5]];portConstraint=eastwest;whiteSpace=wrap;html=1;" vertex="1" parent="0g5WN1IyFn4A6xdM52gC-37">
          <mxGeometry y="26" width="174.17" height="32.08333333333333" as="geometry" />
        </mxCell>
        <mxCell id="0g5WN1IyFn4A6xdM52gC-39" value="" style="line;strokeWidth=1;fillColor=none;align=left;verticalAlign=middle;spacingTop=-1;spacingLeft=3;spacingRight=3;rotatable=0;labelPosition=right;points=[];portConstraint=eastwest;strokeColor=inherit;" vertex="1" parent="0g5WN1IyFn4A6xdM52gC-37">
          <mxGeometry y="58.08333333333333" width="174.17" height="5.833333333333333" as="geometry" />
        </mxCell>
        <mxCell id="0g5WN1IyFn4A6xdM52gC-40" value="+ Move(Point): void" style="text;strokeColor=none;fillColor=none;align=left;verticalAlign=top;spacingLeft=4;spacingRight=4;overflow=hidden;rotatable=0;points=[[0,0.5],[1,0.5]];portConstraint=eastwest;whiteSpace=wrap;html=1;" vertex="1" parent="0g5WN1IyFn4A6xdM52gC-37">
          <mxGeometry y="63.916666666666664" width="174.17" height="26.08" as="geometry" />
        </mxCell>
        <mxCell id="0g5WN1IyFn4A6xdM52gC-42" value="Movement" style="swimlane;fontStyle=1;align=center;verticalAlign=top;childLayout=stackLayout;horizontal=1;startSize=26;horizontalStack=0;resizeParent=1;resizeParentMax=0;resizeLast=0;collapsible=1;marginBottom=0;whiteSpace=wrap;html=1;" vertex="1" parent="0g5WN1IyFn4A6xdM52gC-52">
          <mxGeometry x="310" y="29.17" width="205.83" height="91.91333333333333" as="geometry" />
        </mxCell>
        <mxCell id="0g5WN1IyFn4A6xdM52gC-43" value="- movement: function(double)-&amp;gt;Point&lt;br&gt;- start_time: double" style="text;strokeColor=none;fillColor=none;align=left;verticalAlign=top;spacingLeft=4;spacingRight=4;overflow=hidden;rotatable=0;points=[[0,0.5],[1,0.5]];portConstraint=eastwest;whiteSpace=wrap;html=1;" vertex="1" parent="0g5WN1IyFn4A6xdM52gC-42">
          <mxGeometry y="26" width="205.83" height="34" as="geometry" />
        </mxCell>
        <mxCell id="0g5WN1IyFn4A6xdM52gC-44" value="" style="line;strokeWidth=1;fillColor=none;align=left;verticalAlign=middle;spacingTop=-1;spacingLeft=3;spacingRight=3;rotatable=0;labelPosition=right;points=[];portConstraint=eastwest;strokeColor=inherit;" vertex="1" parent="0g5WN1IyFn4A6xdM52gC-42">
          <mxGeometry y="60" width="205.83" height="5.833333333333333" as="geometry" />
        </mxCell>
        <mxCell id="0g5WN1IyFn4A6xdM52gC-45" value="+ Move(double): Point" style="text;strokeColor=none;fillColor=none;align=left;verticalAlign=top;spacingLeft=4;spacingRight=4;overflow=hidden;rotatable=0;points=[[0,0.5],[1,0.5]];portConstraint=eastwest;whiteSpace=wrap;html=1;" vertex="1" parent="0g5WN1IyFn4A6xdM52gC-42">
          <mxGeometry y="65.83333333333333" width="205.83" height="26.08" as="geometry" />
        </mxCell>
        <mxCell id="0g5WN1IyFn4A6xdM52gC-54" style="edgeStyle=orthogonalEdgeStyle;rounded=0;orthogonalLoop=1;jettySize=auto;html=1;entryX=1;entryY=0.5;entryDx=0;entryDy=0;dashed=1;" edge="1" parent="0g5WN1IyFn4A6xdM52gC-52" source="0g5WN1IyFn4A6xdM52gC-43" target="0g5WN1IyFn4A6xdM52gC-38">
          <mxGeometry relative="1" as="geometry" />
        </mxCell>
        <mxCell id="0g5WN1IyFn4A6xdM52gC-53" style="edgeStyle=orthogonalEdgeStyle;rounded=0;orthogonalLoop=1;jettySize=auto;html=1;startArrow=diamondThin;startFill=1;endArrow=none;endFill=0;" edge="1" parent="1" source="0g5WN1IyFn4A6xdM52gC-47" target="0g5WN1IyFn4A6xdM52gC-42">
          <mxGeometry relative="1" as="geometry" />
        </mxCell>
        <mxCell id="0g5WN1IyFn4A6xdM52gC-50" value="Position" style="text;html=1;align=center;verticalAlign=middle;resizable=0;points=[];autosize=1;strokeColor=none;fillColor=none;" vertex="1" parent="1">
          <mxGeometry x="770.005" y="440" width="70" height="30" as="geometry" />
        </mxCell>
      </root>
    </mxGraphModel>
  </diagram>
</mxfile>
